<svg xmlns="http://www.w3.org/2000/svg" viewBox="0 0 64 64">
  <!-- Outer circle border -->
  <circle cx="32" cy="32" r="30" fill="none" stroke="#374151" stroke-width="2"/>
  
  <!-- 8-segment wheel with project colors -->
  <!-- Segment 1 - Red -->
  <path d="M 32 32 L 32 2 A 30 30 0 0 1 53.456 10.544 Z" fill="#ef4444"/>
  
  <!-- Segment 2 - Orange -->
  <path d="M 32 32 L 53.456 10.544 A 30 30 0 0 1 62 32 Z" fill="#f97316"/>
  
  <!-- Segment 3 - Yellow -->
  <path d="M 32 32 L 62 32 A 30 30 0 0 1 53.456 53.456 Z" fill="#eab308"/>
  
  <!-- Segment 4 - Green -->
  <path d="M 32 32 L 53.456 53.456 A 30 30 0 0 1 32 62 Z" fill="#22c55e"/>
  
  <!-- Segment 5 - Cyan -->
  <path d="M 32 32 L 32 62 A 30 30 0 0 1 10.544 53.456 Z" fill="#06b6d4"/>
  
  <!-- Segment 6 - Blue -->
  <path d="M 32 32 L 10.544 53.456 A 30 30 0 0 1 2 32 Z" fill="#3b82f6"/>
  
  <!-- Segment 7 - Purple -->
  <path d="M 32 32 L 2 32 A 30 30 0 0 1 10.544 10.544 Z" fill="#8b5cf6"/>
  
  <!-- Segment 8 - Pink -->
  <path d="M 32 32 L 10.544 10.544 A 30 30 0 0 1 32 2 Z" fill="#ec4899"/>
  
  <!-- Center circle -->
  <circle cx="32" cy="32" r="8" fill="#ffffff"/>
  <circle cx="32" cy="32" r="6" fill="#374151"/>
  
  <!-- Pointer indicator (right side) -->
  <polygon points="60,32 54,28 54,36" fill="#f97316"/>
</svg>
